<svg
    xmlns="http://www.w3.org/2000/svg" 
    width="200mm"
    height="40mm"
    viewBox="0 0 200 40">
  <path
style="fill:#10110a;"
     d="M 6.4468971,20.191642 V 5.9041417 h 1.455208 1.455209 v 5.2916603 5.29167 H 23.909397 38.46148 v 8.99583 8.99584 H 22.454188 6.4468971 Z m 29.1041659,5.29166 v -5.29166 H 22.454188 9.3573141 v 5.29166 5.29167 H 22.454188 35.551063 Z m 5.820833,0 v -8.99583 h 16.007292 16.007291 v 1.85208 1.85209 H 58.834396 44.282313 v 7.14375 7.14375 h -1.455208 -1.455209 z m 34.925,0 v -8.99583 h 16.007291 16.007293 v 5.42396 5.42396 H 93.759395 79.207312 v 1.71979 1.71979 h 14.552083 14.552085 v 1.85208 1.85209 H 92.304187 76.296896 Z m 29.104164,-3.57187 v -1.71979 H 92.304187 79.207312 v 1.71979 1.71979 h 13.096875 13.096873 z m 5.82084,10.71562 v -1.85208 h 14.55208 14.55209 v -1.71979 -1.71979 H 125.77398 111.2219 v -5.42396 -5.42396 h 16.00729 16.00729 v 1.85208 1.85209 H 128.6844 114.13231 v 1.71979 1.71979 h 14.55209 14.55208 v 5.42396 5.42396 H 127.22919 111.2219 Z m 34.925,-7.14375 v -8.99583 h 1.45521 1.45521 v 8.99583 8.99584 h -1.45521 -1.45521 z m 5.82083,-5.29166 V 5.9041417 h 1.45521 1.45521 v 14.2875003 14.2875 h -1.45521 -1.45521 z m 5.82084,0 V 5.9041417 h 1.4552 1.45521 v 14.2875003 14.2875 h -1.45521 -1.4552 z m 5.82083,8.86354 v -5.42396 h 14.55208 14.55209 v -1.71979 -1.71979 H 178.16148 163.6094 v -1.85209 -1.85208 h 16.00729 16.00729 v 8.99583 8.99584 H 179.61669 163.6094 Z m 29.10417,0 v -1.71979 h -13.09688 -13.09687 v 1.71979 1.71979 h 13.09687 13.09688 z"
     id="path95" />
</svg>
