<svg
    xmlns="http://www.w3.org/2000/svg" 
    width="100mm"
    height="100mm"
    viewBox="0 0 100 100">
    <path
style="fill:#0c0f09;"
        d="M 42.520771,95.529715 V 94.469449 H 41.550496 40.580215 V 93.346813 92.22418 h -0.970276 -0.97028 v -1.060266 -1.060275 h -1.940558 -1.940556 v -1.122636 -1.122635 h -0.970276 -0.970281 v -1.060266 -1.060275 h -0.970275 -0.970281 v -1.122635 -1.122636 h -0.970276 -0.97028 v -4.365812 -4.365812 h 0.97028 0.970276 v 1.122645 1.122636 h 0.970281 0.970275 v 2.18291 2.182902 h 0.970281 0.970276 v 1.060265 1.060266 h 0.970281 0.970275 V 81.309655 79.126744 H 35.728826 34.758545 V 76.943843 74.760932 H 33.788269 32.817988 V 73.700667 72.640392 H 27.966595 23.115206 V 71.517765 70.39513 h -0.970281 -0.970276 v -2.182911 -2.182901 h -0.97028 -0.970276 v -2.182902 -2.18291 h -0.970281 -0.970276 v -2.182911 -2.182901 h -0.97028 -0.970277 V 54.054522 50.811344 H 14.382698 13.412423 V 45.3229 39.834451 h 1.940556 1.940557 v -1.060269 -1.060264 h 0.970276 0.970281 v -1.122635 -1.122635 h 0.970276 0.97028 V 32.22547 28.982293 h 0.970276 0.970281 v -4.365808 -4.365811 h -0.970281 -0.970276 v 1.060268 1.060268 h -0.97028 -0.970276 v 3.305542 3.305541 h -0.970281 -0.970276 v 2.182907 2.182906 h -0.97028 -0.970277 v 1.060268 1.060274 H 14.382698 13.412423 V 32.22547 28.982293 h 0.970275 0.970281 V 26.79939 24.616485 h 0.970277 0.97028 v -2.182906 -2.182905 h 0.970276 0.970281 V 19.128037 18.0054 h 0.970276 0.97028 v -1.060269 -1.060267 h 0.970276 0.970281 V 14.762226 13.63959 h 0.970275 0.970281 v -1.060269 -1.060268 h 0.970276 0.97028 V 10.396417 9.2737792 h 1.940558 1.940556 V 8.2135109 7.1532435 h 1.940556 1.940557 V 6.0306068 4.9079692 h 2.910837 2.910833 V 3.8477009 2.7874326 h 7.762226 7.762226 v 1.0602683 1.0602683 h 2.910837 2.910833 v 1.1226376 1.1226367 h 1.940561 1.940557 v 1.0602674 1.0602683 h 1.940556 1.940556 v 1.1226378 1.122636 h 0.970277 0.970281 v 1.060268 1.060269 h 0.970275 0.970281 v 1.122636 1.122638 h 0.970276 0.970276 v 1.060267 1.060269 h 0.970281 0.970281 v 1.122637 1.122637 h 0.970272 0.970281 v 2.182905 2.182906 h 0.97028 0.970281 v 2.182905 2.182903 h 0.970272 0.970281 v 3.243177 3.243178 h -0.970281 -0.970272 v -1.060274 -1.060268 h -0.970281 -0.97028 V 31.1652 28.982293 H 78.421067 77.450795 V 25.676752 22.37121 h -0.970281 -0.970281 v -1.060268 -1.060268 h -0.970276 -0.970276 v 4.365811 4.365808 h 0.970276 0.970276 v 3.243177 3.243178 h 0.970281 0.970281 v 1.122635 1.122635 h 0.970272 0.970281 v 1.060264 1.060269 h 1.940561 1.940553 v 5.488449 5.488444 h -0.970281 -0.970272 v 3.243178 3.243172 h -0.970281 -0.97028 v 2.182901 2.182911 h -0.970281 -0.970272 v 2.18291 2.182902 h -0.970281 -0.970281 v 2.182901 2.182911 h -0.970276 -0.970276 v 1.122635 1.122627 h -4.851394 -4.851389 v 1.060275 1.060265 h -0.97028 -0.970281 v 2.182911 2.182901 H 60.956061 59.98578 v 2.182911 2.182901 h 0.970281 0.970276 V 82.43229 81.372025 h 0.970281 0.97028 v -2.182902 -2.18291 h 0.970276 0.970281 v -1.122636 -1.122645 h 0.970275 0.970281 v 4.365812 4.365812 H 66.77773 65.807455 v 1.122636 1.122635 h -0.970281 -0.970276 v 1.060275 1.060266 h -0.97028 -0.970281 v 1.122635 1.122636 H 59.98578 58.045224 v 1.060275 1.060266 h -0.970277 -0.97028 v 1.122633 1.122636 H 55.134391 54.16411 v 1.060266 1.060265 h -5.821669 -5.82167 z m 1.940557,-8.731613 v -1.060275 h 3.881113 3.881113 v 1.060275 1.060266 h 0.970281 0.970275 v -1.060266 -1.060275 h -0.970275 -0.970281 v -1.122635 -1.122636 h -3.881113 -3.881113 v 1.122636 1.122635 h -0.970276 -0.970281 v 1.060275 1.060266 h 0.970281 0.970276 z m 1.940556,-10.914525 v -1.122645 h -0.970276 -0.97028 v 1.122645 1.122636 h 0.97028 0.970276 z m 5.82167,0 v -1.122645 h -0.970276 -0.97028 v 1.122645 1.122636 h 0.97028 0.970276 z m -9.702783,-6.548713 v -3.305546 h 0.970281 0.970276 v 2.182901 2.182911 h 0.97028 0.970276 v -2.182911 -2.182901 h -0.970276 -0.97028 v -2.182902 -2.18291 h -0.970276 -0.970281 v -2.182911 -2.182901 h -0.970275 -0.970281 v -1.060267 -1.06027 h -0.970276 -0.97028 v 1.06027 1.060267 h 0.97028 0.970276 v 2.182901 2.182911 h -0.970276 -0.97028 v -1.060275 -1.060256 h -0.970277 -0.970281 v -1.122636 -1.122645 h -0.970275 -0.970281 v -1.060267 -1.06027 h -0.970276 -0.970281 v -1.122635 -1.122635 h -1.940556 -1.940556 v -1.060269 -1.060274 h -1.940558 -1.940556 v -1.122635 -1.122636 h -1.940556 -1.940557 v 1.122636 1.122635 h -0.97028 -0.970276 v 3.243178 3.243172 h 0.970276 0.97028 v 2.182901 2.182911 h 0.970276 0.970281 v 1.122636 1.122635 h 0.970275 0.970281 v 1.060275 1.060266 h 0.970276 0.97028 v 1.122635 1.122636 h 3.881114 3.881113 v 1.060275 1.060266 h 2.910837 2.910833 v 1.122635 1.122627 h 0.970281 0.970275 z m -1.940556,-5.488448 v -2.18291 h 0.970281 0.970275 v 2.18291 2.182902 h -0.970275 -0.970281 z m 15.524452,7.671349 V 70.39513 h 2.910837 2.910833 v -1.060266 -1.060275 h 3.881118 3.881112 v -1.122636 -1.122635 h 0.970277 0.970281 v -1.060266 -1.060275 h 0.970275 0.970281 v -1.122635 -1.122636 h 0.970276 0.970276 v -2.182911 -2.182901 h 0.970281 0.970281 v -3.243172 -3.243178 h -0.970281 -0.970281 v -1.122635 -1.122636 h -1.940552 -1.940556 v 1.122636 1.122635 h -1.940558 -1.940556 v 1.060274 1.060269 h -1.940556 -1.940557 v 1.122635 1.122635 h -0.97028 -0.970281 v 1.06027 1.060267 H 60.956061 59.98578 v 1.122645 1.122636 h -0.970276 -0.97028 v 1.060256 1.060275 h -0.970277 -0.97028 v -2.182911 -2.182901 h 0.97028 0.970277 v -1.060267 -1.06027 h -0.970277 -0.97028 v 1.06027 1.060267 H 55.134391 54.16411 v 2.182901 2.182911 h -0.970275 -0.970281 v 2.18291 2.182902 h -0.970276 -0.97028 v 2.182901 2.182911 h 0.97028 0.970276 v -2.182911 -2.182901 h 0.970281 0.970275 v 3.305546 3.305528 h 0.970281 0.970276 z M 54.16411,63.846416 v -2.18291 h 0.970281 0.970276 v 2.18291 2.182902 H 55.134391 54.16411 Z M 25.055762,19.128037 V 18.0054 h -0.970281 -0.970275 v 1.122637 1.122637 h 0.970275 0.970281 z m 48.513919,0 V 18.0054 H 72.5994 71.629125 v 1.122637 1.122637 h 0.970275 0.970281 z"
        id="path847" />
</svg>
